<svg version="1.1" xmlns="http://www.w3.org/2000/svg" xmlns:xlink="http://www.w3.org/1999/xlink" width="222.89286" height="34.05419" viewBox="0,0,222.89286,34.05419"><g transform="translate(-208.55357,-163.85679)"><g data-paper-data="{&quot;isPaintingLayer&quot;:true}" fill-rule="nonzero" stroke-linecap="butt" stroke-linejoin="miter" stroke-miterlimit="10" stroke-dasharray="" stroke-dashoffset="0" style="mix-blend-mode: normal"><path d="M209.80357,194.89321c0,0 0,-3.9495 0,-8.44876c0,-3.86998 0,-8.1467 0,-10.66667c0,-4.07176 0,-10.67099 0,-10.67099c0,0 6.27672,0 13.39643,0c23.64968,0 155.14323,0 195.32857,0c7.3692,0 11.66786,0 11.66786,0v29.78641c0,0 -4.74396,0 -12.82024,0c-42.80913,0 -179.24436,0 -199.0738,0c-4.72049,0 -8.49881,0 -8.49881,0z" fill="#0055ff" stroke-opacity="0.56471" stroke="#0055ff" stroke-width="2.5"/><text transform="translate(287.48001,186) scale(0.5,0.5)" font-size="40" xml:space="preserve" fill="#ffffff" fill-rule="nonzero" stroke="none" stroke-width="1" stroke-linecap="butt" stroke-linejoin="miter" stroke-miterlimit="10" stroke-dasharray="" stroke-dashoffset="0" font-family="Sans Serif" font-weight="normal" text-anchor="start" style="mix-blend-mode: normal"><tspan x="0" dy="0">Retour</tspan></text></g></g></svg>