<svg version="1.1" xmlns="http://www.w3.org/2000/svg" xmlns:xlink="http://www.w3.org/1999/xlink" width="662.06744" height="442.85839" viewBox="0,0,662.06744,442.85839"><defs><linearGradient x1="43.68396" y1="-11.67263" x2="165.18397" y2="-11.67263" gradientUnits="userSpaceOnUse" id="color-1"><stop offset="0" stop-color="#00ff2a" stop-opacity="0.25098"/><stop offset="1" stop-color="#00ff2a" stop-opacity="0"/></linearGradient><linearGradient x1="43.68563" y1="93.26168" x2="165.18562" y2="93.26168" gradientUnits="userSpaceOnUse" id="color-2"><stop offset="0" stop-color="#0055ff" stop-opacity="0.23529"/><stop offset="1" stop-color="#0055ff" stop-opacity="0"/></linearGradient><linearGradient x1="43.68563" y1="191.00335" x2="165.18562" y2="191.00335" gradientUnits="userSpaceOnUse" id="color-3"><stop offset="0" stop-color="#ffd600" stop-opacity="0.41961"/><stop offset="1" stop-color="#ffd600" stop-opacity="0"/></linearGradient><linearGradient x1="43.68396" y1="332.56797" x2="165.18397" y2="332.56797" gradientUnits="userSpaceOnUse" id="color-4"><stop offset="0" stop-color="#ff0000" stop-opacity="0.32941"/><stop offset="1" stop-color="#ff0000" stop-opacity="0"/></linearGradient><linearGradient x1="43.6823" y1="262.02369" x2="165.1823" y2="262.02369" gradientUnits="userSpaceOnUse" id="color-5"><stop offset="0" stop-color="#ff5600" stop-opacity="0.32941"/><stop offset="1" stop-color="#ff5600" stop-opacity="0"/></linearGradient><linearGradient x1="347.45321" y1="159.3791" x2="347.45321" y2="178.74311" gradientUnits="userSpaceOnUse" id="color-6"><stop offset="0" stop-color="#ffffff" stop-opacity="0"/><stop offset="1" stop-color="#ffffff" stop-opacity="0.50196"/></linearGradient><linearGradient x1="346.86735" y1="200.67409" x2="346.85131" y2="181.3101" gradientUnits="userSpaceOnUse" id="color-7"><stop offset="0" stop-color="#ffffff" stop-opacity="0"/><stop offset="1" stop-color="#ffffff" stop-opacity="0.50196"/></linearGradient></defs><g transform="translate(4.31437,65.01258)"><g data-paper-data="{&quot;isPaintingLayer&quot;:true}" fill-rule="nonzero" stroke-linejoin="miter" stroke-miterlimit="10" stroke-dasharray="" stroke-dashoffset="0" style="mix-blend-mode: normal"><path d="M43.68396,40.79295v-104.93115h121.5v104.93115z" fill="url(#color-1)" stroke="none" stroke-width="0" stroke-linecap="butt"/><path d="M43.65815,40.81258v-104.57515" fill="none" stroke="#00ff05" stroke-width="2.5" stroke-linecap="round"/><path d="M43.65982,40.89896v104.57515" fill="none" stroke="#0055ff" stroke-width="2.5" stroke-linecap="round"/><path d="M43.68563,146v-105.47666h121.5v105.47666z" fill="url(#color-2)" stroke="none" stroke-width="0" stroke-linecap="butt"/><path d="M43.65982,235.55046v-89.39601" fill="none" stroke="#ffd600" stroke-width="2.5" stroke-linecap="round"/><path d="M43.68563,236.00001v-89.99333h121.5v89.99334z" fill="url(#color-3)" stroke="none" stroke-width="0" stroke-linecap="butt"/><path d="M-3.06436,180.00001h646.12879" fill="none" stroke="#0055ff" stroke-width="2.5" stroke-linecap="round"/><path d="M43.65649,236.11871v51.63565" fill="none" stroke="#ff4a00" stroke-width="2.5" stroke-linecap="round"/><path d="M43.65816,287.19981v89.39601" fill="none" stroke="#ff0000" stroke-width="2.5" stroke-linecap="round"/><path d="M43.68396,377.04537v-88.95479h121.5v88.95479z" fill="url(#color-4)" stroke="none" stroke-width="0" stroke-linecap="butt"/><path d="M43.6823,288.01401v-51.98066h121.5v51.98066z" fill="url(#color-5)" stroke="none" stroke-width="0" stroke-linecap="butt"/><text transform="translate(47.20655,143.56021) scale(0.32659,0.32659)" font-size="40" xml:space="preserve" fill="#0055ff" fill-rule="nonzero" stroke="none" stroke-width="1" stroke-linecap="butt" stroke-linejoin="miter" stroke-miterlimit="10" stroke-dasharray="" stroke-dashoffset="0" font-family="Sans Serif" font-weight="normal" text-anchor="start" style="mix-blend-mode: normal"><tspan x="0" dy="0">Bien</tspan></text><text transform="translate(47.20488,35.52252) scale(0.3266,0.3266)" font-size="40" xml:space="preserve" fill="#00ff05" fill-rule="nonzero" stroke="none" stroke-width="1" stroke-linecap="butt" stroke-linejoin="miter" stroke-miterlimit="10" stroke-dasharray="" stroke-dashoffset="0" font-family="Sans Serif" font-weight="normal" text-anchor="start" style="mix-blend-mode: normal"><tspan x="0" dy="0">Excellent</tspan></text><text transform="translate(47.20322,231.58622) scale(0.3266,0.3266)" font-size="40" xml:space="preserve" fill="#ffd600" fill-rule="nonzero" stroke="none" stroke-width="1" stroke-linecap="butt" stroke-linejoin="miter" stroke-miterlimit="10" stroke-dasharray="" stroke-dashoffset="0" font-family="Sans Serif" font-weight="normal" text-anchor="start" style="mix-blend-mode: normal"><tspan x="0" dy="0">Moyen</tspan></text><text transform="translate(47.20155,284.10204) scale(0.3266,0.3266)" font-size="40" xml:space="preserve" fill="#ff4a00" fill-rule="nonzero" stroke="none" stroke-width="1" stroke-linecap="butt" stroke-linejoin="miter" stroke-miterlimit="10" stroke-dasharray="" stroke-dashoffset="0" font-family="Sans Serif" font-weight="normal" text-anchor="start" style="mix-blend-mode: normal"><tspan x="0" dy="0">Pas ouf</tspan></text><text transform="translate(48.70038,355.62424) scale(0.3266,0.3266)" font-size="40" xml:space="preserve" fill="#ff0000" fill-rule="nonzero" stroke="none" stroke-width="1" stroke-linecap="butt" stroke-linejoin="miter" stroke-miterlimit="10" stroke-dasharray="" stroke-dashoffset="0" font-family="Sans Serif" font-weight="normal" text-anchor="start" style="mix-blend-mode: normal"><tspan x="0" dy="0">Non...</tspan></text><path d="M37.15335,178.74311v-19.36401h620.59973v19.36401z" fill="url(#color-6)" stroke="none" stroke-width="0" stroke-linecap="butt"/><path d="M657.15107,181.05308l0.01604,19.36399l-620.59952,0.51404l-0.01604,-19.36399z" fill="url(#color-7)" stroke="none" stroke-width="0" stroke-linecap="butt"/><path d="M457.02485,32.63314c0,0 0,-3.1033 0,-6.63856c0,-3.04081 0,-6.40122 0,-8.38126c0,-3.19936 0,-8.38466 0,-8.38466c0,0 4.93189,0 10.52615,0c18.58258,0 121.90278,0 153.47814,0c5.7903,0 9.16795,0 9.16795,0v23.40449c0,0 -3.72754,0 -10.07341,0c-33.63699,0 -140.84009,0 -156.42094,0c-3.7091,0 -6.67789,0 -6.67789,0z" fill="#0055ff" stroke-opacity="0.56471" stroke="#0055ff" stroke-width="2.5" stroke-linecap="butt"/><text transform="translate(518.05862,25.64536) scale(0.39287,0.39287)" font-size="40" xml:space="preserve" fill="#ffffff" fill-rule="nonzero" stroke="none" stroke-width="1" stroke-linecap="butt" stroke-linejoin="miter" stroke-miterlimit="10" stroke-dasharray="" stroke-dashoffset="0" font-family="Sans Serif" font-weight="normal" text-anchor="start" style="mix-blend-mode: normal"><tspan x="0" dy="0">Retour</tspan></text><text transform="translate(596.53578,174.14131) scale(0.23737,0.23737)" font-size="40" xml:space="preserve" fill="#0055ff" fill-rule="nonzero" stroke="none" stroke-width="1" stroke-linecap="butt" stroke-linejoin="miter" stroke-miterlimit="10" stroke-dasharray="" stroke-dashoffset="0" font-family="Sans Serif" font-weight="normal" text-anchor="start" style="mix-blend-mode: normal"><tspan x="0" dy="0">Moyenne</tspan></text></g></g></svg>