<svg version="1.1" xmlns="http://www.w3.org/2000/svg" xmlns:xlink="http://www.w3.org/1999/xlink" width="239.39141" height="34.47093" viewBox="0,0,239.39141,34.47093"><g transform="translate(-200.30429,-163.85679)"><g data-paper-data="{&quot;isPaintingLayer&quot;:true}" fill-rule="nonzero" stroke-linecap="butt" stroke-linejoin="miter" stroke-miterlimit="10" stroke-dasharray="" stroke-dashoffset="0" style="mix-blend-mode: normal"><path d="M201.55429,194.89321c0,0 0,-3.9495 0,-8.44876c0,-3.86998 0,-8.1467 0,-10.66667c0,-4.07176 0,-10.67099 0,-10.67099c0,0 6.74659,0 14.39928,0c25.42009,0 166.7572,0 209.95082,0c7.92085,0 12.54131,0 12.54131,0v29.78641c0,0 -5.09909,0 -13.77996,0c-46.01382,0 -192.66254,0 -213.97642,0c-5.07387,0 -9.13503,0 -9.13503,0z" fill="#ffffff" stroke="#0057ff" stroke-width="2.5"/><text transform="translate(277.99001,186) scale(0.5,0.5)" font-size="40" xml:space="preserve" fill="#0057ff" fill-rule="nonzero" stroke="none" stroke-width="1" stroke-linecap="butt" stroke-linejoin="miter" stroke-miterlimit="10" stroke-dasharray="" stroke-dashoffset="0" font-family="Sans Serif" font-weight="normal" text-anchor="start" style="mix-blend-mode: normal"><tspan x="0" dy="0">Se tester</tspan></text></g></g></svg>