<svg version="1.1" xmlns="http://www.w3.org/2000/svg" xmlns:xlink="http://www.w3.org/1999/xlink" width="284.83334" height="57.65945" viewBox="0,0,284.83334,57.65945"><g transform="translate(-177.58336,-163.85678)"><g data-paper-data="{&quot;isPaintingLayer&quot;:true}" fill-rule="nonzero" stroke-linecap="butt" stroke-linejoin="miter" stroke-miterlimit="10" stroke-dasharray="" stroke-dashoffset="0" style="mix-blend-mode: normal"><path d="M178.83337,194.89321c0,0 0,-3.9495 0,-8.44876c0,-3.86998 0,-8.1467 0,-10.66667c0,-4.07176 0,-10.67099 0,-10.67099c0,0 8.04076,0 17.16144,0c30.29632,0 198.74556,0 250.22484,0c9.44027,0 14.94706,0 14.94706,0v29.78641c0,0 -6.07723,0 -16.42331,0c-54.84046,0 -229.62022,0 -255.02265,0c-6.04717,0 -10.88737,0 -10.88737,0z" fill="#ffffff" stroke="#0057ff" stroke-width="2.5"/><text transform="translate(217.83005,186) scale(0.5,0.5)" font-size="40" xml:space="preserve" fill="#0057ff" fill-rule="nonzero" stroke="none" stroke-width="1" stroke-linecap="butt" stroke-linejoin="miter" stroke-miterlimit="10" stroke-dasharray="" stroke-dashoffset="0" font-family="Sans Serif" font-weight="normal" text-anchor="start" style="mix-blend-mode: normal"><tspan x="0" dy="0">Nouvel entrainement</tspan></text><text transform="translate(189.147,217.81587) scale(0.38061,0.38061)" font-size="40" xml:space="preserve" fill="#0057ff" fill-rule="nonzero" stroke="none" stroke-width="1" stroke-linecap="butt" stroke-linejoin="miter" stroke-miterlimit="10" stroke-dasharray="" stroke-dashoffset="0" font-family="Sans Serif" font-weight="normal" text-anchor="start" style="mix-blend-mode: normal"><tspan x="0" dy="0">Vous n'avez aucune activité en cours</tspan></text></g></g></svg>