<svg version="1.1" xmlns="http://www.w3.org/2000/svg" xmlns:xlink="http://www.w3.org/1999/xlink" width="284.83334" height="61.62907" viewBox="0,0,284.83334,61.62907"><g transform="translate(-177.58339,-163.8568)"><g data-paper-data="{&quot;isPaintingLayer&quot;:true}" fill-rule="nonzero" stroke-linecap="butt" stroke-linejoin="miter" stroke-miterlimit="10" stroke-dasharray="" stroke-dashoffset="0" style="mix-blend-mode: normal"><path d="M178.8334,220.19079c0,0 0,-7.30381 0,-15.62428c0,-7.15675 0,-15.06568 0,-19.72586c0,-7.5299 0,-19.73385 0,-19.73385c0,0 8.04076,0 17.16144,0c30.29632,0 198.74556,0 250.22484,0c9.44027,0 14.94706,0 14.94706,0v55.08397c0,0 -6.07723,0 -16.42331,0c-54.84046,0 -229.62022,0 -255.02265,0c-6.04717,0 -10.88737,0 -10.88737,0z" fill="#ffffff" stroke="#ff0000" stroke-width="2.5"/><text transform="translate(295.16598,190.24878) scale(0.61802,0.61802)" font-size="40" xml:space="preserve" fill="#ff0000" fill-rule="nonzero" stroke="none" stroke-width="1" stroke-linecap="butt" stroke-linejoin="miter" stroke-miterlimit="10" stroke-dasharray="" stroke-dashoffset="0" font-family="Sans Serif" font-weight="normal" text-anchor="start" style="mix-blend-mode: normal"><tspan x="0" dy="0">Non</tspan></text><text transform="translate(261.44086,210.2295) scale(0.37856,0.37856)" font-size="40" xml:space="preserve" fill-opacity="0.60392" fill="#ff0000" fill-rule="nonzero" stroke="none" stroke-width="1" stroke-linecap="butt" stroke-linejoin="miter" stroke-miterlimit="10" stroke-dasharray="" stroke-dashoffset="0" font-family="Sans Serif" font-weight="normal" text-anchor="start" style="mix-blend-mode: normal"><tspan x="0" dy="0">Je me suis trompé</tspan></text></g></g></svg>