<svg version="1.1" xmlns="http://www.w3.org/2000/svg" xmlns:xlink="http://www.w3.org/1999/xlink" width="237.51752" height="34.49192" viewBox="0,0,237.51752,34.49192"><g transform="translate(-201.24124,-163.85679)"><g data-paper-data="{&quot;isPaintingLayer&quot;:true}" fill-rule="nonzero" stroke-linecap="butt" stroke-linejoin="miter" stroke-miterlimit="10" stroke-dasharray="" stroke-dashoffset="0" style="mix-blend-mode: normal"><path d="M202.49124,194.89321c0,0 0,-3.9495 0,-8.44876c0,-3.86998 0,-8.1467 0,-10.66667c0,-4.07176 0,-10.67099 0,-10.67099c0,0 6.69323,0 14.28538,0c25.21901,0 165.4381,0 208.29004,0c7.8582,0 12.4421,0 12.4421,0v29.78641c0,0 -5.05876,0 -13.67095,0c-45.64983,0 -191.13851,0 -212.28379,0c-5.03373,0 -9.06277,0 -9.06277,0z" fill="#0055ff" stroke-opacity="0.56471" stroke="#0055ff" stroke-width="2.5"/><text transform="translate(277.99001,186) scale(0.5,0.5)" font-size="40" xml:space="preserve" fill="#ffffff" fill-rule="nonzero" stroke="none" stroke-width="1" stroke-linecap="butt" stroke-linejoin="miter" stroke-miterlimit="10" stroke-dasharray="" stroke-dashoffset="0" font-family="Sans Serif" font-weight="normal" text-anchor="start" style="mix-blend-mode: normal"><tspan x="0" dy="0">Se tester</tspan></text></g></g></svg>