<svg version="1.1" xmlns="http://www.w3.org/2000/svg" xmlns:xlink="http://www.w3.org/1999/xlink" width="383.3394" height="62.10685" viewBox="0,0,383.3394,62.10685"><defs><linearGradient x1="123.25" y1="167.5" x2="508.25" y2="181" gradientUnits="userSpaceOnUse" id="color-1"><stop offset="0" stop-color="#ffffff"/><stop offset="1" stop-color="#ffffff"/></linearGradient><linearGradient x1="123.25" y1="167.5" x2="508.25" y2="181" gradientUnits="userSpaceOnUse" id="color-2"><stop offset="0" stop-color="#ffffff"/><stop offset="1" stop-color="#ffffff"/></linearGradient><linearGradient x1="123.25" y1="167.5" x2="508.25" y2="181" gradientUnits="userSpaceOnUse" id="color-3"><stop offset="0" stop-color="#ffffff"/><stop offset="1" stop-color="#ffffff"/></linearGradient><linearGradient x1="123.25" y1="167.5" x2="508.25" y2="181" gradientUnits="userSpaceOnUse" id="color-4"><stop offset="0" stop-color="#ffffff"/><stop offset="1" stop-color="#ffffff"/></linearGradient><linearGradient x1="123.25" y1="167.5" x2="508.25" y2="181" gradientUnits="userSpaceOnUse" id="color-5"><stop offset="0" stop-color="#ffffff"/><stop offset="1" stop-color="#ffffff"/></linearGradient><linearGradient x1="123.25" y1="167.5" x2="508.25" y2="181" gradientUnits="userSpaceOnUse" id="color-6"><stop offset="0" stop-color="#ffffff"/><stop offset="1" stop-color="#ffffff"/></linearGradient><linearGradient x1="123.25" y1="167.5" x2="508.25" y2="181" gradientUnits="userSpaceOnUse" id="color-7"><stop offset="0" stop-color="#ffffff"/><stop offset="1" stop-color="#ffffff"/></linearGradient><linearGradient x1="123.25" y1="167.5" x2="508.25" y2="181" gradientUnits="userSpaceOnUse" id="color-8"><stop offset="0" stop-color="#ffffff"/><stop offset="1" stop-color="#ffffff"/></linearGradient><linearGradient x1="123.25" y1="167.5" x2="508.25" y2="181" gradientUnits="userSpaceOnUse" id="color-9"><stop offset="0" stop-color="#ffffff"/><stop offset="1" stop-color="#ffffff"/></linearGradient><linearGradient x1="123.25" y1="167.5" x2="508.25" y2="181" gradientUnits="userSpaceOnUse" id="color-10"><stop offset="0" stop-color="#ffffff"/><stop offset="1" stop-color="#ffffff"/></linearGradient><linearGradient x1="123.25" y1="167.5" x2="508.25" y2="181" gradientUnits="userSpaceOnUse" id="color-11"><stop offset="0" stop-color="#ffffff"/><stop offset="1" stop-color="#ffffff"/></linearGradient><linearGradient x1="123.25" y1="167.5" x2="508.25" y2="181" gradientUnits="userSpaceOnUse" id="color-12"><stop offset="0" stop-color="#ffffff"/><stop offset="1" stop-color="#ffffff"/></linearGradient><linearGradient x1="123.25" y1="167.5" x2="508.25" y2="181" gradientUnits="userSpaceOnUse" id="color-13"><stop offset="0" stop-color="#ffffff"/><stop offset="1" stop-color="#ffffff"/></linearGradient><linearGradient x1="123.25" y1="167.5" x2="508.25" y2="181" gradientUnits="userSpaceOnUse" id="color-14"><stop offset="0" stop-color="#ffffff"/><stop offset="1" stop-color="#ffffff"/></linearGradient><linearGradient x1="123.25" y1="167.5" x2="508.25" y2="181" gradientUnits="userSpaceOnUse" id="color-15"><stop offset="0" stop-color="#ffffff"/><stop offset="1" stop-color="#ffffff"/></linearGradient></defs><g transform="translate(-119.3066,-152.3037)"><g data-paper-data="{&quot;isPaintingLayer&quot;:true}" fill-rule="nonzero" stroke-width="1" stroke-linecap="butt" stroke-miterlimit="10" stroke-dasharray="" stroke-dashoffset="0" style="mix-blend-mode: normal"><g><path d="M135.2388,172.54h5.8999l-1.0288,-9.1962h-0.084zM137.5693,152.8037h9.2803l4.7871,30.6963h-9.3013l-0.5039,-4.3882h-10.0151l-2.3726,4.3882h-9.6372z" fill="url(#color-1)" stroke="none" stroke-linejoin="miter"/><path d="M156.1299,161.1812h8.2095l-0.6299,2.8344h0.084c1.7776,-2.1976 4.0872,-3.3244 6.9287,-3.3803c2.0296,0 3.7303,0.4409 5.102,1.3227c1.4138,0.9518 2.1346,2.5125 2.1626,4.6821c-0.028,1.0918 -0.2309,2.5126 -0.6089,4.2622l-2.7085,12.5977h-8.5244l2.6245,-10.855c0.406,-1.4417 0.6369,-2.6805 0.6929,-3.7163c0,-0.7419 -0.231,-1.2808 -0.6929,-1.6167c-0.4339,-0.3499 -1.0078,-0.5249 -1.7216,-0.5249c-1.3158,0.028 -2.2606,0.4409 -2.8345,1.2388c-0.6299,0.8118 -1.0638,1.8196 -1.3018,3.0234l-2.8974,12.4507h-8.5245z" fill="url(#color-2)" stroke="none" stroke-linejoin="miter"/><path d="M193.9858,169.6636c0.056,-1.4837 -0.1399,-2.4286 -0.5879,-2.8345c-0.4339,-0.4339 -1.1547,-0.6509 -2.1625,-0.6509c-0.8819,0.028 -1.6237,0.287 -2.2256,0.7769c-0.6299,0.4899 -1.2598,1.5397 -1.8897,3.1494c-0.9518,3.1214 -1.1268,5.263 -0.5249,6.4248c0.6019,1.1478 1.4907,1.7357 2.6665,1.7637c1.1478,-0.028 2.0086,-0.434 2.5825,-1.2178c0.5739,-0.7139 1.0288,-1.5397 1.3648,-2.4775h8.1675c-1.4838,6.3128 -5.48,9.4692 -11.9888,9.4692c-2.3516,-0.028 -4.2692,-0.3779 -5.7529,-1.0498c-1.4978,-0.6579 -2.6455,-1.4977 -3.4434,-2.5195c-0.7978,-1.0638 -1.3577,-2.1836 -1.6797,-3.3594c-0.3219,-1.1478 -0.4829,-2.2396 -0.4829,-3.2754c0,-3.8913 1.1898,-7.0547 3.5693,-9.4902c2.3236,-2.4636 5.62,-3.7094 9.8892,-3.7373c3.1634,0 5.7459,0.7138 7.7476,2.1416c1.9736,1.4557 2.9464,3.7513 2.9184,6.8867z" fill="url(#color-3)" stroke="none" stroke-linejoin="miter"/><path d="M205.7227,161.1812h8.2513l-0.714,3.4853h0.084c0.798,-1.2318 1.799,-2.2186 3.003,-2.9604c1.525,-0.7139 2.988,-0.9589 4.388,-0.7349l-1.575,7.0967c-0.784,-0.084 -1.666,-0.014 -2.645,0.2099c-0.966,0.224 -1.953,0.9169 -2.961,2.0786c-0.994,0.9519 -1.735,2.5896 -2.225,4.9131l-1.68,8.2305h-8.5245z" fill="url(#color-4)" stroke="none" stroke-linejoin="miter"/><path d="M227.769,178.6079c0.545,0.28 1.161,0.4199 1.847,0.4199c1.428,0 2.506,-0.5039 3.234,-1.5117c0.657,-0.9658 1.098,-2.2676 1.322,-3.9053c-0.686,0.35 -1.399,0.5809 -2.141,0.6929c-0.784,0.112 -1.575,0.21 -2.373,0.294c-0.714,0.028 -1.344,0.2449 -1.889,0.6508c-0.574,0.434 -0.861,1.0498 -0.861,1.8477c0,0.7419 0.287,1.2458 0.861,1.5117zM221.365,167.9419c0.742,-2.9255 2.141,-4.8921 4.199,-5.8999c2.044,-0.9798 4.437,-1.4487 7.181,-1.4067c1.063,0 2.211,0.0419 3.443,0.1259c1.232,0.112 2.408,0.371 3.527,0.7769c1.148,0.3639 2.079,0.9518 2.793,1.7637c0.714,0.7978 1.071,1.8826 1.071,3.2544c-0.056,2.0436 -0.497,4.7801 -1.323,8.2094c-0.35,1.5817 -0.665,3.0025 -0.945,4.2622c-0.294,1.2318 -0.441,2.0646 -0.441,2.4986c0,0.7978 0.119,1.4557 0.357,1.9736h-8.335c-0.238,-0.6859 -0.343,-1.3997 -0.315,-2.1416h-0.084c-0.77,0.8818 -1.771,1.5397 -3.003,1.9736c-1.288,0.4899 -2.582,0.7349 -3.884,0.7349c-1.946,0 -3.618,-0.4759 -5.018,-1.4277c-1.442,-0.9099 -2.177,-2.4146 -2.205,-4.5142c0.028,-2.8975 1.036,-4.9201 3.024,-6.0679c1.945,-1.1198 4.535,-1.7496 7.768,-1.8896c0.63,-0.056 1.323,-0.098 2.079,-0.126c0.714,-0.028 1.372,-0.098 1.974,-0.21c1.399,-0.2099 2.127,-0.9588 2.183,-2.2465c-0.028,-0.7699 -0.301,-1.2948 -0.819,-1.5747c-0.532,-0.238 -1.148,-0.357 -1.847,-0.357c-1.75,-0.028 -2.877,0.7349 -3.381,2.2886z" fill="url(#color-5)" stroke="none" stroke-linejoin="miter"/><path d="M255.252,166.5352c-0.629,0.4479 -1.126,1.0498 -1.49,1.8056c-0.35,0.6719 -0.63,1.4278 -0.84,2.2676c-0.196,0.8398 -0.315,1.6517 -0.357,2.4355c-0.042,1.1338 0.168,2.0717 0.63,2.8135c0.462,0.8119 1.169,1.2178 2.12,1.2178c1.022,0 1.869,-0.3219 2.541,-0.9658c0.616,-0.5459 1.113,-1.2318 1.491,-2.0576c0.658,-1.8057 0.993,-3.2124 1.007,-4.2203c0.014,-0.4199 0.021,-0.8538 0.021,-1.3017c-0.014,-0.4619 -0.111,-0.8819 -0.293,-1.2598c-0.196,-0.4059 -0.497,-0.7348 -0.903,-0.9868c-0.448,-0.2659 -1.064,-0.3989 -1.848,-0.3989c-0.798,0 -1.491,0.2169 -2.079,0.6509zM266.506,179.6367c-0.28,1.5397 -0.623,3.0165 -1.028,4.4302c-0.434,1.3717 -1.092,2.6035 -1.974,3.6953c-0.896,1.0918 -2.142,1.9386 -3.737,2.5405c-1.638,0.6579 -3.808,0.9869 -6.509,0.9869c-0.686,0 -1.589,-0.077 -2.709,-0.231c-1.147,-0.112 -2.323,-0.3989 -3.527,-0.8608c-1.148,-0.448 -2.107,-1.1898 -2.876,-2.2256c-0.798,-1.0078 -1.197,-2.3866 -1.197,-4.1363h8.209c0,1.1198 0.336,1.8687 1.008,2.2466c0.672,0.3919 1.428,0.5459 2.268,0.4619c0.853,-0.084 1.567,-0.5599 2.141,-1.4277c0.574,-0.8538 0.945,-1.7917 1.113,-2.8135l0.525,-2.3725h-0.084c-1.386,1.4977 -3.164,2.2465 -5.333,2.2465c-5.711,-0.1259 -8.622,-3.0234 -8.734,-8.6923c0,-3.3314 0.93,-6.2849 2.792,-8.8604c1.806,-2.6035 4.458,-3.9333 7.958,-3.9892c1.399,0 2.687,0.2239 3.863,0.6718c1.176,0.5179 2.092,1.4348 2.75,2.7505h0.084l0.567,-2.8764h8.21z" fill="url(#color-6)" stroke="none" stroke-linejoin="miter"/><path d="M286.033,169.8315c0.056,-0.3079 0.084,-0.5878 0.084,-0.8398c0,-1.0218 -0.259,-1.8547 -0.777,-2.4985c-0.546,-0.6159 -1.365,-0.9239 -2.457,-0.9239c-2.295,0.028 -3.772,1.4488 -4.43,4.2622zM292.73,177.0122c-0.056,0.168 -0.126,0.3779 -0.209,0.6299c-0.112,0.2939 -0.273,0.6439 -0.483,1.0498c-0.364,0.7699 -0.966,1.5537 -1.806,2.3516c-0.826,0.8118 -1.988,1.5047 -3.485,2.0786c-1.512,0.6019 -3.472,0.9168 -5.879,0.9448c-3.934,-0.056 -6.761,-1.0358 -8.483,-2.9395c-1.777,-1.8336 -2.652,-4.1362 -2.624,-6.9077c0,-2.5895 0.448,-4.7591 1.343,-6.5088c0.854,-1.7076 1.96,-3.0934 3.318,-4.1572c1.372,-1.0638 2.813,-1.8266 4.325,-2.2886c1.526,-0.4199 2.989,-0.6298 4.388,-0.6298c2.646,0 5.102,0.7418 7.37,2.2255c2.281,1.5258 3.471,4.0313 3.569,7.5166c0.028,1.2038 -0.119,2.4986 -0.441,3.8843h-15.915c-0.028,1.2038 0.217,2.3026 0.735,3.2964c0.518,0.9798 1.435,1.4697 2.751,1.4697c1.833,-0.07 2.953,-0.7418 3.359,-2.0156z" fill="url(#color-7)" stroke="none" stroke-linejoin="miter"/><path d="M311.144,152.8037h13.186l-0.021,19.4424h0.084l8.377,-19.4424h12.619l-6.53,30.6963h-8.776l4.01,-17.0698h-0.084l-8.084,17.0698h-8.692l-0.105,-17.6157h-0.084l-3.548,17.6157h-8.777z" fill="url(#color-8)" stroke="none" stroke-linejoin="miter"/><path d="M359.561,169.8315c0.056,-0.3079 0.084,-0.5878 0.084,-0.8398c0,-1.0218 -0.259,-1.8547 -0.777,-2.4985c-0.546,-0.6159 -1.365,-0.9239 -2.456,-0.9239c-2.296,0.028 -3.773,1.4488 -4.431,4.2622zM366.259,177.0122c-0.056,0.168 -0.126,0.3779 -0.21,0.6299c-0.112,0.2939 -0.273,0.6439 -0.483,1.0498c-0.364,0.7699 -0.966,1.5537 -1.806,2.3516c-0.826,0.8118 -1.987,1.5047 -3.485,2.0786c-1.512,0.6019 -3.471,0.9168 -5.879,0.9448c-3.933,-0.056 -6.761,-1.0358 -8.482,-2.9395c-1.778,-1.8336 -2.653,-4.1362 -2.625,-6.9077c0,-2.5895 0.448,-4.7591 1.344,-6.5088c0.854,-1.7076 1.959,-3.0934 3.317,-4.1572c1.372,-1.0638 2.814,-1.8266 4.325,-2.2886c1.526,-0.4199 2.989,-0.6298 4.389,-0.6298c2.645,0 5.102,0.7418 7.369,2.2255c2.282,1.5258 3.472,4.0313 3.57,7.5166c0.028,1.2038 -0.119,2.4986 -0.441,3.8843h-15.915c-0.028,1.2038 0.217,2.3026 0.734,3.2964c0.518,0.9798 1.435,1.4697 2.751,1.4697c1.834,-0.07 2.953,-0.7418 3.359,-2.0156z" fill="url(#color-9)" stroke="none" stroke-linejoin="miter"/><path d="M372.012,161.1812h8.251l-0.588,2.9184h0.084c1.778,-2.2536 4.116,-3.4084 7.013,-3.4643c1.484,0 2.785,0.2519 3.905,0.7558c1.12,0.5739 1.82,1.5537 2.1,2.9395c1.904,-2.4356 4.346,-3.6674 7.327,-3.6953c4.634,-0.042 7.006,2.1626 7.118,6.6137c-0.056,1.2038 -0.224,2.3796 -0.504,3.5274l-2.708,12.7236h-8.525l2.709,-11.2959c0.28,-0.9658 0.455,-2.0576 0.525,-3.2754c-0.042,-1.4277 -0.777,-2.1416 -2.205,-2.1416c-1.75,0.028 -2.82,0.8888 -3.212,2.5825l-3.36,14.1304h-8.503l3.002,-12.5767c0.196,-0.6578 0.308,-1.3507 0.336,-2.0786c-0.028,-1.3717 -0.742,-2.0576 -2.141,-2.0576c-1.036,0.028 -1.827,0.3289 -2.373,0.9028c-0.602,0.6019 -1.001,1.4068 -1.197,2.4146l-3.17,13.3955h-8.524z" fill="url(#color-10)" stroke="none" stroke-linejoin="miter"/><path d="M416.418,177.7051c0.476,0.9238 1.442,1.3997 2.898,1.4277c1.078,0 1.995,-0.3499 2.75,-1.0498c0.728,-0.6159 1.309,-1.3787 1.743,-2.2886c0.868,-1.9736 1.316,-3.6393 1.344,-4.997c0.028,-1.6237 -0.196,-2.8835 -0.672,-3.7793c-0.518,-0.8539 -1.491,-1.2808 -2.919,-1.2808c-0.993,0.028 -1.868,0.3429 -2.624,0.9448c-0.756,0.6579 -1.379,1.4768 -1.869,2.4566c-0.937,2.0996 -1.406,3.9752 -1.406,5.6269c-0.056,1.1338 0.196,2.1136 0.755,2.9395zM411.568,164.4146c2.296,-2.4636 5.725,-3.7234 10.288,-3.7793c3.318,0 5.942,0.7698 7.874,2.3095c1.946,1.5817 2.932,4.0593 2.96,7.4326c0,1.4418 -0.203,2.9325 -0.608,4.4722c-0.462,1.5817 -1.204,3.0724 -2.226,4.4722c-1.036,1.3577 -2.415,2.4775 -4.136,3.3594c-1.75,0.8958 -3.913,1.3577 -6.488,1.3857c-3.121,0 -5.746,-0.8189 -7.874,-2.4565c-2.141,-1.6377 -3.233,-4.3042 -3.275,-7.9996c0,-3.6673 1.162,-6.7327 3.485,-9.1962z" fill="url(#color-11)" stroke="none" stroke-linejoin="miter"/><path d="M436.932,161.1812h8.251l-0.714,3.4853h0.084c0.798,-1.2318 1.799,-2.2186 3.003,-2.9604c1.525,-0.7139 2.988,-0.9589 4.388,-0.7349l-1.575,7.0967c-0.784,-0.084 -1.666,-0.014 -2.645,0.2099c-0.966,0.224 -1.953,0.9169 -2.961,2.0786c-0.994,0.9519 -1.735,2.5896 -2.225,4.9131l-1.68,8.2305h-8.525z" fill="url(#color-12)" stroke="none" stroke-linejoin="miter"/><path d="M454.211,161.1812h8.504l-4.64,22.3188h-8.525zM463.261,158.2627h-8.525l1.176,-5.459h8.525z" fill="url(#color-13)" stroke="none" stroke-linejoin="miter"/><path d="M479.239,169.8315c0.056,-0.3079 0.084,-0.5878 0.084,-0.8398c0,-1.0218 -0.259,-1.8547 -0.777,-2.4985c-0.546,-0.6159 -1.365,-0.9239 -2.457,-0.9239c-2.295,0.028 -3.772,1.4488 -4.43,4.2622zM485.937,177.0122c-0.056,0.168 -0.126,0.3779 -0.21,0.6299c-0.112,0.2939 -0.273,0.6439 -0.483,1.0498c-0.364,0.7699 -0.966,1.5537 -1.806,2.3516c-0.826,0.8118 -1.988,1.5047 -3.485,2.0786c-1.512,0.6019 -3.472,0.9168 -5.879,0.9448c-3.934,-0.056 -6.761,-1.0358 -8.483,-2.9395c-1.777,-1.8336 -2.652,-4.1362 -2.624,-6.9077c0,-2.5895 0.448,-4.7591 1.344,-6.5088c0.853,-1.7076 1.959,-3.0934 3.317,-4.1572c1.372,-1.0638 2.813,-1.8266 4.325,-2.2886c1.526,-0.4199 2.989,-0.6298 4.388,-0.6298c2.646,0 5.102,0.7418 7.37,2.2255c2.282,1.5258 3.471,4.0313 3.569,7.5166c0.028,1.2038 -0.119,2.4986 -0.441,3.8843h-15.915c-0.028,1.2038 0.217,2.3026 0.735,3.2964c0.518,0.9798 1.435,1.4697 2.751,1.4697c1.833,-0.07 2.953,-0.7418 3.359,-2.0156z" fill="url(#color-14)" stroke="none" stroke-linejoin="miter"/><path d="M493.621,152.8037h8.525l-6.362,30.6963h-8.525z" fill="url(#color-15)" stroke="none" stroke-linejoin="miter"/><path d="M135.2388,172.54h5.8999l-1.0288,-9.1962h-0.084zM137.5693,152.8037h9.2803l4.7871,30.6963h-9.3013l-0.5039,-4.3882h-10.0151l-2.3726,4.3882h-9.6372z" fill="none" stroke="#454545" stroke-linejoin="round"/><path d="M156.1299,161.1812h8.2095l-0.6299,2.8344h0.084c1.7776,-2.1976 4.0872,-3.3244 6.9287,-3.3803c2.0296,0 3.7303,0.4409 5.102,1.3227c1.4138,0.9518 2.1346,2.5125 2.1626,4.6821c-0.028,1.0918 -0.2309,2.5126 -0.6089,4.2622l-2.7085,12.5977h-8.5244l2.6245,-10.855c0.406,-1.4417 0.6369,-2.6805 0.6929,-3.7163c0,-0.7419 -0.231,-1.2808 -0.6929,-1.6167c-0.4339,-0.3499 -1.0078,-0.5249 -1.7216,-0.5249c-1.3158,0.028 -2.2606,0.4409 -2.8345,1.2388c-0.6299,0.8118 -1.0638,1.8196 -1.3018,3.0234l-2.8974,12.4507h-8.5245z" fill="none" stroke="#454545" stroke-linejoin="round"/><path d="M193.9858,169.6636c0.056,-1.4837 -0.1399,-2.4286 -0.5879,-2.8345c-0.4339,-0.4339 -1.1547,-0.6509 -2.1625,-0.6509c-0.8819,0.028 -1.6237,0.287 -2.2256,0.7769c-0.6299,0.4899 -1.2598,1.5397 -1.8897,3.1494c-0.9518,3.1214 -1.1268,5.263 -0.5249,6.4248c0.6019,1.1478 1.4907,1.7357 2.6665,1.7637c1.1478,-0.028 2.0086,-0.434 2.5825,-1.2178c0.5739,-0.7139 1.0288,-1.5397 1.3648,-2.4775h8.1675c-1.4838,6.3128 -5.48,9.4692 -11.9888,9.4692c-2.3516,-0.028 -4.2692,-0.3779 -5.7529,-1.0498c-1.4978,-0.6579 -2.6455,-1.4977 -3.4434,-2.5195c-0.7978,-1.0638 -1.3577,-2.1836 -1.6797,-3.3594c-0.3219,-1.1478 -0.4829,-2.2396 -0.4829,-3.2754c0,-3.8913 1.1898,-7.0547 3.5693,-9.4902c2.3236,-2.4636 5.62,-3.7094 9.8892,-3.7373c3.1634,0 5.7459,0.7138 7.7476,2.1416c1.9736,1.4557 2.9464,3.7513 2.9184,6.8867z" fill="none" stroke="#454545" stroke-linejoin="round"/><path d="M205.7227,161.1812h8.2513l-0.714,3.4853h0.084c0.798,-1.2318 1.799,-2.2186 3.003,-2.9604c1.525,-0.7139 2.988,-0.9589 4.388,-0.7349l-1.575,7.0967c-0.784,-0.084 -1.666,-0.014 -2.645,0.2099c-0.966,0.224 -1.953,0.9169 -2.961,2.0786c-0.994,0.9519 -1.735,2.5896 -2.225,4.9131l-1.68,8.2305h-8.5245z" fill="none" stroke="#454545" stroke-linejoin="round"/><path d="M227.769,178.6079c0.545,0.28 1.161,0.4199 1.847,0.4199c1.428,0 2.506,-0.5039 3.234,-1.5117c0.657,-0.9658 1.098,-2.2676 1.322,-3.9053c-0.686,0.35 -1.399,0.5809 -2.141,0.6929c-0.784,0.112 -1.575,0.21 -2.373,0.294c-0.714,0.028 -1.344,0.2449 -1.889,0.6508c-0.574,0.434 -0.861,1.0498 -0.861,1.8477c0,0.7419 0.287,1.2458 0.861,1.5117zM221.365,167.9419c0.742,-2.9255 2.141,-4.8921 4.199,-5.8999c2.044,-0.9798 4.437,-1.4487 7.181,-1.4067c1.063,0 2.211,0.0419 3.443,0.1259c1.232,0.112 2.408,0.371 3.527,0.7769c1.148,0.3639 2.079,0.9518 2.793,1.7637c0.714,0.7978 1.071,1.8826 1.071,3.2544c-0.056,2.0436 -0.497,4.7801 -1.323,8.2094c-0.35,1.5817 -0.665,3.0025 -0.945,4.2622c-0.294,1.2318 -0.441,2.0646 -0.441,2.4986c0,0.7978 0.119,1.4557 0.357,1.9736h-8.335c-0.238,-0.6859 -0.343,-1.3997 -0.315,-2.1416h-0.084c-0.77,0.8818 -1.771,1.5397 -3.003,1.9736c-1.288,0.4899 -2.582,0.7349 -3.884,0.7349c-1.946,0 -3.618,-0.4759 -5.018,-1.4277c-1.442,-0.9099 -2.177,-2.4146 -2.205,-4.5142c0.028,-2.8975 1.036,-4.9201 3.024,-6.0679c1.945,-1.1198 4.535,-1.7496 7.768,-1.8896c0.63,-0.056 1.323,-0.098 2.079,-0.126c0.714,-0.028 1.372,-0.098 1.974,-0.21c1.399,-0.2099 2.127,-0.9588 2.183,-2.2465c-0.028,-0.7699 -0.301,-1.2948 -0.819,-1.5747c-0.532,-0.238 -1.148,-0.357 -1.847,-0.357c-1.75,-0.028 -2.877,0.7349 -3.381,2.2886z" fill="none" stroke="#454545" stroke-linejoin="round"/><path d="M255.252,166.5352c-0.629,0.4479 -1.126,1.0498 -1.49,1.8056c-0.35,0.6719 -0.63,1.4278 -0.84,2.2676c-0.196,0.8398 -0.315,1.6517 -0.357,2.4355c-0.042,1.1338 0.168,2.0717 0.63,2.8135c0.462,0.8119 1.169,1.2178 2.12,1.2178c1.022,0 1.869,-0.3219 2.541,-0.9658c0.616,-0.5459 1.113,-1.2318 1.491,-2.0576c0.658,-1.8057 0.993,-3.2124 1.007,-4.2203c0.014,-0.4199 0.021,-0.8538 0.021,-1.3017c-0.014,-0.4619 -0.111,-0.8819 -0.293,-1.2598c-0.196,-0.4059 -0.497,-0.7348 -0.903,-0.9868c-0.448,-0.2659 -1.064,-0.3989 -1.848,-0.3989c-0.798,0 -1.491,0.2169 -2.079,0.6509zM266.506,179.6367c-0.28,1.5397 -0.623,3.0165 -1.028,4.4302c-0.434,1.3717 -1.092,2.6035 -1.974,3.6953c-0.896,1.0918 -2.142,1.9386 -3.737,2.5405c-1.638,0.6579 -3.808,0.9869 -6.509,0.9869c-0.686,0 -1.589,-0.077 -2.709,-0.231c-1.147,-0.112 -2.323,-0.3989 -3.527,-0.8608c-1.148,-0.448 -2.107,-1.1898 -2.876,-2.2256c-0.798,-1.0078 -1.197,-2.3866 -1.197,-4.1363h8.209c0,1.1198 0.336,1.8687 1.008,2.2466c0.672,0.3919 1.428,0.5459 2.268,0.4619c0.853,-0.084 1.567,-0.5599 2.141,-1.4277c0.574,-0.8538 0.945,-1.7917 1.113,-2.8135l0.525,-2.3725h-0.084c-1.386,1.4977 -3.164,2.2465 -5.333,2.2465c-5.711,-0.1259 -8.622,-3.0234 -8.734,-8.6923c0,-3.3314 0.93,-6.2849 2.792,-8.8604c1.806,-2.6035 4.458,-3.9333 7.958,-3.9892c1.399,0 2.687,0.2239 3.863,0.6718c1.176,0.5179 2.092,1.4348 2.75,2.7505h0.084l0.567,-2.8764h8.21z" fill="none" stroke="#454545" stroke-linejoin="round"/><path d="M286.033,169.8315c0.056,-0.3079 0.084,-0.5878 0.084,-0.8398c0,-1.0218 -0.259,-1.8547 -0.777,-2.4985c-0.546,-0.6159 -1.365,-0.9239 -2.457,-0.9239c-2.295,0.028 -3.772,1.4488 -4.43,4.2622zM292.73,177.0122c-0.056,0.168 -0.126,0.3779 -0.209,0.6299c-0.112,0.2939 -0.273,0.6439 -0.483,1.0498c-0.364,0.7699 -0.966,1.5537 -1.806,2.3516c-0.826,0.8118 -1.988,1.5047 -3.485,2.0786c-1.512,0.6019 -3.472,0.9168 -5.879,0.9448c-3.934,-0.056 -6.761,-1.0358 -8.483,-2.9395c-1.777,-1.8336 -2.652,-4.1362 -2.624,-6.9077c0,-2.5895 0.448,-4.7591 1.343,-6.5088c0.854,-1.7076 1.96,-3.0934 3.318,-4.1572c1.372,-1.0638 2.813,-1.8266 4.325,-2.2886c1.526,-0.4199 2.989,-0.6298 4.388,-0.6298c2.646,0 5.102,0.7418 7.37,2.2255c2.281,1.5258 3.471,4.0313 3.569,7.5166c0.028,1.2038 -0.119,2.4986 -0.441,3.8843h-15.915c-0.028,1.2038 0.217,2.3026 0.735,3.2964c0.518,0.9798 1.435,1.4697 2.751,1.4697c1.833,-0.07 2.953,-0.7418 3.359,-2.0156z" fill="none" stroke="#454545" stroke-linejoin="round"/><path d="M311.144,152.8037h13.186l-0.021,19.4424h0.084l8.377,-19.4424h12.619l-6.53,30.6963h-8.776l4.01,-17.0698h-0.084l-8.084,17.0698h-8.692l-0.105,-17.6157h-0.084l-3.548,17.6157h-8.777z" fill="none" stroke="#454545" stroke-linejoin="round"/><path d="M359.561,169.8315c0.056,-0.3079 0.084,-0.5878 0.084,-0.8398c0,-1.0218 -0.259,-1.8547 -0.777,-2.4985c-0.546,-0.6159 -1.365,-0.9239 -2.456,-0.9239c-2.296,0.028 -3.773,1.4488 -4.431,4.2622zM366.259,177.0122c-0.056,0.168 -0.126,0.3779 -0.21,0.6299c-0.112,0.2939 -0.273,0.6439 -0.483,1.0498c-0.364,0.7699 -0.966,1.5537 -1.806,2.3516c-0.826,0.8118 -1.987,1.5047 -3.485,2.0786c-1.512,0.6019 -3.471,0.9168 -5.879,0.9448c-3.933,-0.056 -6.761,-1.0358 -8.482,-2.9395c-1.778,-1.8336 -2.653,-4.1362 -2.625,-6.9077c0,-2.5895 0.448,-4.7591 1.344,-6.5088c0.854,-1.7076 1.959,-3.0934 3.317,-4.1572c1.372,-1.0638 2.814,-1.8266 4.325,-2.2886c1.526,-0.4199 2.989,-0.6298 4.389,-0.6298c2.645,0 5.102,0.7418 7.369,2.2255c2.282,1.5258 3.472,4.0313 3.57,7.5166c0.028,1.2038 -0.119,2.4986 -0.441,3.8843h-15.915c-0.028,1.2038 0.217,2.3026 0.734,3.2964c0.518,0.9798 1.435,1.4697 2.751,1.4697c1.834,-0.07 2.953,-0.7418 3.359,-2.0156z" fill="none" stroke="#454545" stroke-linejoin="round"/><path d="M372.012,161.1812h8.251l-0.588,2.9184h0.084c1.778,-2.2536 4.116,-3.4084 7.013,-3.4643c1.484,0 2.785,0.2519 3.905,0.7558c1.12,0.5739 1.82,1.5537 2.1,2.9395c1.904,-2.4356 4.346,-3.6674 7.327,-3.6953c4.634,-0.042 7.006,2.1626 7.118,6.6137c-0.056,1.2038 -0.224,2.3796 -0.504,3.5274l-2.708,12.7236h-8.525l2.709,-11.2959c0.28,-0.9658 0.455,-2.0576 0.525,-3.2754c-0.042,-1.4277 -0.777,-2.1416 -2.205,-2.1416c-1.75,0.028 -2.82,0.8888 -3.212,2.5825l-3.36,14.1304h-8.503l3.002,-12.5767c0.196,-0.6578 0.308,-1.3507 0.336,-2.0786c-0.028,-1.3717 -0.742,-2.0576 -2.141,-2.0576c-1.036,0.028 -1.827,0.3289 -2.373,0.9028c-0.602,0.6019 -1.001,1.4068 -1.197,2.4146l-3.17,13.3955h-8.524z" fill="none" stroke="#454545" stroke-linejoin="round"/><path d="M416.418,177.7051c0.476,0.9238 1.442,1.3997 2.898,1.4277c1.078,0 1.995,-0.3499 2.75,-1.0498c0.728,-0.6159 1.309,-1.3787 1.743,-2.2886c0.868,-1.9736 1.316,-3.6393 1.344,-4.997c0.028,-1.6237 -0.196,-2.8835 -0.672,-3.7793c-0.518,-0.8539 -1.491,-1.2808 -2.919,-1.2808c-0.993,0.028 -1.868,0.3429 -2.624,0.9448c-0.756,0.6579 -1.379,1.4768 -1.869,2.4566c-0.937,2.0996 -1.406,3.9752 -1.406,5.6269c-0.056,1.1338 0.196,2.1136 0.755,2.9395zM411.568,164.4146c2.296,-2.4636 5.725,-3.7234 10.288,-3.7793c3.318,0 5.942,0.7698 7.874,2.3095c1.946,1.5817 2.932,4.0593 2.96,7.4326c0,1.4418 -0.203,2.9325 -0.608,4.4722c-0.462,1.5817 -1.204,3.0724 -2.226,4.4722c-1.036,1.3577 -2.415,2.4775 -4.136,3.3594c-1.75,0.8958 -3.913,1.3577 -6.488,1.3857c-3.121,0 -5.746,-0.8189 -7.874,-2.4565c-2.141,-1.6377 -3.233,-4.3042 -3.275,-7.9996c0,-3.6673 1.162,-6.7327 3.485,-9.1962z" fill="none" stroke="#454545" stroke-linejoin="round"/><path d="M436.932,161.1812h8.251l-0.714,3.4853h0.084c0.798,-1.2318 1.799,-2.2186 3.003,-2.9604c1.525,-0.7139 2.988,-0.9589 4.388,-0.7349l-1.575,7.0967c-0.784,-0.084 -1.666,-0.014 -2.645,0.2099c-0.966,0.224 -1.953,0.9169 -2.961,2.0786c-0.994,0.9519 -1.735,2.5896 -2.225,4.9131l-1.68,8.2305h-8.525z" fill="none" stroke="#454545" stroke-linejoin="round"/><path d="M454.211,161.1812h8.504l-4.64,22.3188h-8.525zM463.261,158.2627h-8.525l1.176,-5.459h8.525z" fill="none" stroke="#454545" stroke-linejoin="round"/><path d="M479.239,169.8315c0.056,-0.3079 0.084,-0.5878 0.084,-0.8398c0,-1.0218 -0.259,-1.8547 -0.777,-2.4985c-0.546,-0.6159 -1.365,-0.9239 -2.457,-0.9239c-2.295,0.028 -3.772,1.4488 -4.43,4.2622zM485.937,177.0122c-0.056,0.168 -0.126,0.3779 -0.21,0.6299c-0.112,0.2939 -0.273,0.6439 -0.483,1.0498c-0.364,0.7699 -0.966,1.5537 -1.806,2.3516c-0.826,0.8118 -1.988,1.5047 -3.485,2.0786c-1.512,0.6019 -3.472,0.9168 -5.879,0.9448c-3.934,-0.056 -6.761,-1.0358 -8.483,-2.9395c-1.777,-1.8336 -2.652,-4.1362 -2.624,-6.9077c0,-2.5895 0.448,-4.7591 1.344,-6.5088c0.853,-1.7076 1.959,-3.0934 3.317,-4.1572c1.372,-1.0638 2.813,-1.8266 4.325,-2.2886c1.526,-0.4199 2.989,-0.6298 4.388,-0.6298c2.646,0 5.102,0.7418 7.37,2.2255c2.282,1.5258 3.471,4.0313 3.569,7.5166c0.028,1.2038 -0.119,2.4986 -0.441,3.8843h-15.915c-0.028,1.2038 0.217,2.3026 0.735,3.2964c0.518,0.9798 1.435,1.4697 2.751,1.4697c1.833,-0.07 2.953,-0.7418 3.359,-2.0156z" fill="none" stroke="#454545" stroke-linejoin="round"/><path d="M493.621,152.8037h8.525l-6.362,30.6963h-8.525z" fill="none" stroke="#454545" stroke-linejoin="round"/></g><g><path d="M419.621,207.6875c-1.094,4.1797 -3.894,6.2539 -8.402,6.2227c-2.547,-0.0313 -4.395,-0.5664 -5.543,-1.6055c-1.172,-1.0078 -1.75,-2.2188 -1.735,-3.6328c0.016,-0.4453 0.082,-0.9063 0.2,-1.3828l2.273,-10.9219h5.285l-1.945,9.3516c-0.164,0.6953 -0.254,1.25 -0.27,1.664c0,0.125 0.008,0.3086 0.024,0.5508c0.023,0.2422 0.09,0.4961 0.199,0.7617c0.109,0.2578 0.309,0.4766 0.598,0.6563c0.258,0.1875 0.648,0.2812 1.172,0.2812c0.546,0 1.011,-0.1172 1.394,-0.3516c0.383,-0.2265 0.688,-0.5234 0.914,-0.8906c0.461,-0.7656 0.774,-1.6367 0.938,-2.6133l1.968,-9.4101h5.274z" fill="#454545" stroke="none" stroke-linejoin="miter"/><path d="M423.805,196.3672h4.758l-3.551,17.1328h-4.758z" fill="#454545" stroke="none" stroke-linejoin="miter"/><path d="M434.316,201.043h2.567l-0.668,2.9297h-2.52l-1.007,4.6875c-0.125,0.414 -0.196,0.8281 -0.211,1.2421c0,0.211 0.07,0.3789 0.211,0.5039c0.148,0.1641 0.398,0.2461 0.75,0.2461l1.324,0.0469l-0.563,2.7539c-0.687,0.1407 -1.371,0.2266 -2.051,0.2578c-0.679,0.0313 -1.281,0 -1.804,-0.0937c-0.516,-0.0938 -1.008,-0.2539 -1.477,-0.4805c-0.398,-0.25 -0.711,-0.5937 -0.937,-1.0312c-0.235,-0.4141 -0.352,-0.8516 -0.352,-1.3125c0.016,-0.625 0.102,-1.1953 0.258,-1.711l1.102,-5.1093h-2.11l0.68,-2.9297h2.062l0.832,-3.7618h4.758z" fill="#454545" stroke="none" stroke-linejoin="miter"/><path d="M437.902,201.043h4.746l-2.589,12.457h-4.758zM442.953,199.4141h-4.758l0.657,-3.0469h4.757z" fill="#454545" stroke="none" stroke-linejoin="miter"/><path d="M444.711,201.043h4.605l-0.328,1.6289h0.047c0.992,-1.2578 2.297,-1.9024 3.914,-1.9336c0.828,0 1.555,0.1406 2.18,0.4219c0.625,0.3203 1.016,0.8671 1.172,1.6406c1.062,-1.3594 2.426,-2.0469 4.09,-2.0625c2.586,-0.0235 3.91,1.207 3.972,3.6914c-0.031,0.6719 -0.125,1.3281 -0.281,1.9687l-1.512,7.1016h-4.757l1.511,-6.3047c0.156,-0.5391 0.254,-1.1484 0.293,-1.8281c-0.023,-0.7969 -0.433,-1.1953 -1.23,-1.1953c-0.977,0.0156 -1.574,0.4961 -1.793,1.4414l-1.875,7.8867h-4.746l1.675,-7.0195c0.11,-0.3672 0.172,-0.7539 0.188,-1.1602c-0.016,-0.7656 -0.414,-1.1484 -1.195,-1.1484c-0.578,0.0156 -1.02,0.1836 -1.325,0.5039c-0.336,0.3359 -0.558,0.7851 -0.668,1.3476l-1.769,7.4766h-4.758z" fill="#454545" stroke="none" stroke-linejoin="miter"/><path d="M469.555,210.7695c0.304,0.1563 0.648,0.2344 1.031,0.2344c0.797,0 1.398,-0.2812 1.805,-0.8437c0.367,-0.5391 0.613,-1.2657 0.738,-2.1797c-0.383,0.1953 -0.781,0.3242 -1.195,0.3867c-0.438,0.0625 -0.879,0.1172 -1.325,0.164c-0.398,0.0157 -0.75,0.1368 -1.054,0.3633c-0.321,0.2422 -0.481,0.586 -0.481,1.0313c0,0.414 0.16,0.6953 0.481,0.8437zM465.98,204.8164c0.415,-1.6328 1.196,-2.7305 2.344,-3.293c1.141,-0.5468 2.477,-0.8086 4.008,-0.7851c0.594,0 1.234,0.0234 1.922,0.0703c0.687,0.0625 1.344,0.207 1.969,0.4336c0.64,0.2031 1.16,0.5312 1.558,0.9844c0.399,0.4453 0.598,1.0507 0.598,1.8164c-0.031,1.1406 -0.277,2.6679 -0.738,4.582c-0.196,0.8828 -0.371,1.6758 -0.528,2.3789c-0.164,0.6875 -0.246,1.1523 -0.246,1.3945c0,0.4454 0.067,0.8125 0.199,1.1016h-4.652c-0.133,-0.3828 -0.191,-0.7812 -0.176,-1.1953h-0.047c-0.429,0.4922 -0.988,0.8594 -1.675,1.1015c-0.719,0.2735 -1.442,0.4102 -2.168,0.4102c-1.086,0 -2.02,-0.2656 -2.801,-0.7969c-0.805,-0.5078 -1.215,-1.3476 -1.231,-2.5195c0.016,-1.6172 0.579,-2.7461 1.688,-3.3867c1.086,-0.625 2.531,-0.9766 4.336,-1.0547c0.351,-0.0313 0.738,-0.0547 1.16,-0.0703c0.398,-0.0156 0.766,-0.0547 1.102,-0.1172c0.781,-0.1172 1.187,-0.5352 1.218,-1.2539c-0.015,-0.4297 -0.168,-0.7227 -0.457,-0.8789c-0.297,-0.1328 -0.64,-0.1992 -1.031,-0.1992c-0.977,-0.0157 -1.605,0.4101 -1.887,1.2773z" fill="#454545" stroke="none" stroke-linejoin="miter"/><path d="M485.293,201.043h2.566l-0.668,2.9297h-2.519l-1.008,4.6875c-0.125,0.414 -0.195,0.8281 -0.211,1.2421c0,0.211 0.07,0.3789 0.211,0.5039c0.148,0.1641 0.398,0.2461 0.75,0.2461l1.324,0.0469l-0.562,2.7539c-0.688,0.1407 -1.371,0.2266 -2.051,0.2578c-0.68,0.0313 -1.281,0 -1.805,-0.0937c-0.515,-0.0938 -1.008,-0.2539 -1.476,-0.4805c-0.399,-0.25 -0.711,-0.5937 -0.938,-1.0312c-0.234,-0.4141 -0.351,-0.8516 -0.351,-1.3125c0.015,-0.625 0.101,-1.1953 0.257,-1.711l1.102,-5.1093h-2.109l0.679,-2.9297h2.063l0.832,-3.7618h4.758z" fill="#454545" stroke="none" stroke-linejoin="miter"/><path d="M495.91,205.8711c0.031,-0.1719 0.047,-0.3281 0.047,-0.4688c0,-0.5703 -0.145,-1.0351 -0.434,-1.3945c-0.304,-0.3437 -0.761,-0.5156 -1.371,-0.5156c-1.281,0.0156 -2.105,0.8086 -2.472,2.3789zM499.648,209.8789c-0.031,0.0938 -0.07,0.2109 -0.117,0.3516c-0.062,0.164 -0.152,0.3593 -0.269,0.5859c-0.203,0.4297 -0.539,0.8672 -1.008,1.3125c-0.461,0.4531 -1.109,0.8399 -1.945,1.1602c-0.844,0.3359 -1.938,0.5117 -3.282,0.5273c-2.195,-0.0312 -3.773,-0.5781 -4.734,-1.6406c-0.992,-1.0235 -1.481,-2.3086 -1.465,-3.8555c0,-1.4453 0.25,-2.6562 0.75,-3.6328c0.477,-0.9531 1.094,-1.7266 1.852,-2.3203c0.765,-0.5938 1.57,-1.0195 2.414,-1.2774c0.851,-0.2343 1.668,-0.3515 2.449,-0.3515c1.477,0 2.848,0.414 4.113,1.2422c1.274,0.8515 1.938,2.25 1.992,4.1953c0.016,0.6719 -0.066,1.3945 -0.246,2.168h-8.882c-0.016,0.6718 0.121,1.2851 0.41,1.8398c0.289,0.5469 0.8,0.8203 1.535,0.8203c1.023,-0.0391 1.648,-0.4141 1.875,-1.125z" fill="#454545" stroke="none" stroke-linejoin="miter"/><path d="M419.621,207.6875c-1.094,4.1797 -3.894,6.2539 -8.402,6.2227c-2.547,-0.0313 -4.395,-0.5664 -5.543,-1.6055c-1.172,-1.0078 -1.75,-2.2188 -1.735,-3.6328c0.016,-0.4453 0.082,-0.9063 0.2,-1.3828l2.273,-10.9219h5.285l-1.945,9.3516c-0.164,0.6953 -0.254,1.25 -0.27,1.664c0,0.125 0.008,0.3086 0.024,0.5508c0.023,0.2422 0.09,0.4961 0.199,0.7617c0.109,0.2578 0.309,0.4766 0.598,0.6563c0.258,0.1875 0.648,0.2812 1.172,0.2812c0.546,0 1.011,-0.1172 1.394,-0.3516c0.383,-0.2265 0.688,-0.5234 0.914,-0.8906c0.461,-0.7656 0.774,-1.6367 0.938,-2.6133l1.968,-9.4101h5.274z" fill="none" stroke="#ffffff" stroke-linejoin="round"/><path d="M423.805,196.3672h4.758l-3.551,17.1328h-4.758z" fill="none" stroke="#ffffff" stroke-linejoin="round"/><path d="M434.316,201.043h2.567l-0.668,2.9297h-2.52l-1.007,4.6875c-0.125,0.414 -0.196,0.8281 -0.211,1.2421c0,0.211 0.07,0.3789 0.211,0.5039c0.148,0.1641 0.398,0.2461 0.75,0.2461l1.324,0.0469l-0.563,2.7539c-0.687,0.1407 -1.371,0.2266 -2.051,0.2578c-0.679,0.0313 -1.281,0 -1.804,-0.0937c-0.516,-0.0938 -1.008,-0.2539 -1.477,-0.4805c-0.398,-0.25 -0.711,-0.5937 -0.937,-1.0312c-0.235,-0.4141 -0.352,-0.8516 -0.352,-1.3125c0.016,-0.625 0.102,-1.1953 0.258,-1.711l1.102,-5.1093h-2.11l0.68,-2.9297h2.062l0.832,-3.7618h4.758z" fill="none" stroke="#ffffff" stroke-linejoin="round"/><path d="M437.902,201.043h4.746l-2.589,12.457h-4.758zM442.953,199.4141h-4.758l0.657,-3.0469h4.757z" fill="none" stroke="#ffffff" stroke-linejoin="round"/><path d="M444.711,201.043h4.605l-0.328,1.6289h0.047c0.992,-1.2578 2.297,-1.9024 3.914,-1.9336c0.828,0 1.555,0.1406 2.18,0.4219c0.625,0.3203 1.016,0.8671 1.172,1.6406c1.062,-1.3594 2.426,-2.0469 4.09,-2.0625c2.586,-0.0235 3.91,1.207 3.972,3.6914c-0.031,0.6719 -0.125,1.3281 -0.281,1.9687l-1.512,7.1016h-4.757l1.511,-6.3047c0.156,-0.5391 0.254,-1.1484 0.293,-1.8281c-0.023,-0.7969 -0.433,-1.1953 -1.23,-1.1953c-0.977,0.0156 -1.574,0.4961 -1.793,1.4414l-1.875,7.8867h-4.746l1.675,-7.0195c0.11,-0.3672 0.172,-0.7539 0.188,-1.1602c-0.016,-0.7656 -0.414,-1.1484 -1.195,-1.1484c-0.578,0.0156 -1.02,0.1836 -1.325,0.5039c-0.336,0.3359 -0.558,0.7851 -0.668,1.3476l-1.769,7.4766h-4.758z" fill="none" stroke="#ffffff" stroke-linejoin="round"/><path d="M469.555,210.7695c0.304,0.1563 0.648,0.2344 1.031,0.2344c0.797,0 1.398,-0.2812 1.805,-0.8437c0.367,-0.5391 0.613,-1.2657 0.738,-2.1797c-0.383,0.1953 -0.781,0.3242 -1.195,0.3867c-0.438,0.0625 -0.879,0.1172 -1.325,0.164c-0.398,0.0157 -0.75,0.1368 -1.054,0.3633c-0.321,0.2422 -0.481,0.586 -0.481,1.0313c0,0.414 0.16,0.6953 0.481,0.8437zM465.98,204.8164c0.415,-1.6328 1.196,-2.7305 2.344,-3.293c1.141,-0.5468 2.477,-0.8086 4.008,-0.7851c0.594,0 1.234,0.0234 1.922,0.0703c0.687,0.0625 1.344,0.207 1.969,0.4336c0.64,0.2031 1.16,0.5312 1.558,0.9844c0.399,0.4453 0.598,1.0507 0.598,1.8164c-0.031,1.1406 -0.277,2.6679 -0.738,4.582c-0.196,0.8828 -0.371,1.6758 -0.528,2.3789c-0.164,0.6875 -0.246,1.1523 -0.246,1.3945c0,0.4454 0.067,0.8125 0.199,1.1016h-4.652c-0.133,-0.3828 -0.191,-0.7812 -0.176,-1.1953h-0.047c-0.429,0.4922 -0.988,0.8594 -1.675,1.1015c-0.719,0.2735 -1.442,0.4102 -2.168,0.4102c-1.086,0 -2.02,-0.2656 -2.801,-0.7969c-0.805,-0.5078 -1.215,-1.3476 -1.231,-2.5195c0.016,-1.6172 0.579,-2.7461 1.688,-3.3867c1.086,-0.625 2.531,-0.9766 4.336,-1.0547c0.351,-0.0313 0.738,-0.0547 1.16,-0.0703c0.398,-0.0156 0.766,-0.0547 1.102,-0.1172c0.781,-0.1172 1.187,-0.5352 1.218,-1.2539c-0.015,-0.4297 -0.168,-0.7227 -0.457,-0.8789c-0.297,-0.1328 -0.64,-0.1992 -1.031,-0.1992c-0.977,-0.0157 -1.605,0.4101 -1.887,1.2773z" fill="none" stroke="#ffffff" stroke-linejoin="round"/><path d="M485.293,201.043h2.566l-0.668,2.9297h-2.519l-1.008,4.6875c-0.125,0.414 -0.195,0.8281 -0.211,1.2421c0,0.211 0.07,0.3789 0.211,0.5039c0.148,0.1641 0.398,0.2461 0.75,0.2461l1.324,0.0469l-0.562,2.7539c-0.688,0.1407 -1.371,0.2266 -2.051,0.2578c-0.68,0.0313 -1.281,0 -1.805,-0.0937c-0.515,-0.0938 -1.008,-0.2539 -1.476,-0.4805c-0.399,-0.25 -0.711,-0.5937 -0.938,-1.0312c-0.234,-0.4141 -0.351,-0.8516 -0.351,-1.3125c0.015,-0.625 0.101,-1.1953 0.257,-1.711l1.102,-5.1093h-2.109l0.679,-2.9297h2.063l0.832,-3.7618h4.758z" fill="none" stroke="#ffffff" stroke-linejoin="round"/><path d="M495.91,205.8711c0.031,-0.1719 0.047,-0.3281 0.047,-0.4688c0,-0.5703 -0.145,-1.0351 -0.434,-1.3945c-0.304,-0.3437 -0.761,-0.5156 -1.371,-0.5156c-1.281,0.0156 -2.105,0.8086 -2.472,2.3789zM499.648,209.8789c-0.031,0.0938 -0.07,0.2109 -0.117,0.3516c-0.062,0.164 -0.152,0.3593 -0.269,0.5859c-0.203,0.4297 -0.539,0.8672 -1.008,1.3125c-0.461,0.4531 -1.109,0.8399 -1.945,1.1602c-0.844,0.3359 -1.938,0.5117 -3.282,0.5273c-2.195,-0.0312 -3.773,-0.5781 -4.734,-1.6406c-0.992,-1.0235 -1.481,-2.3086 -1.465,-3.8555c0,-1.4453 0.25,-2.6562 0.75,-3.6328c0.477,-0.9531 1.094,-1.7266 1.852,-2.3203c0.765,-0.5938 1.57,-1.0195 2.414,-1.2774c0.851,-0.2343 1.668,-0.3515 2.449,-0.3515c1.477,0 2.848,0.414 4.113,1.2422c1.274,0.8515 1.938,2.25 1.992,4.1953c0.016,0.6719 -0.066,1.3945 -0.246,2.168h-8.882c-0.016,0.6718 0.121,1.2851 0.41,1.8398c0.289,0.5469 0.8,0.8203 1.535,0.8203c1.023,-0.0391 1.648,-0.4141 1.875,-1.125z" fill="none" stroke="#ffffff" stroke-linejoin="round"/></g></g></g></svg>