<svg version="1.1" xmlns="http://www.w3.org/2000/svg" xmlns:xlink="http://www.w3.org/1999/xlink" width="184.70001" height="62.05128" viewBox="0,0,184.70001,62.05128"><g transform="translate(-226.65904,-163.82234)"><g data-paper-data="{&quot;isPaintingLayer&quot;:true}" fill-rule="nonzero" stroke-linejoin="miter" stroke-miterlimit="10" stroke-dasharray="" stroke-dashoffset="0" style="mix-blend-mode: normal"><path d="M298.84236,211.42362l21.6,-11.8l15.4,9.4z" fill="#0057ff" stroke-opacity="0.50196" stroke="#0055ff" stroke-width="2.5" stroke-linecap="round"/><path d="M227.90905,224.62362v-16.2c0,0 61.0627,0 91.4949,0c30.30057,0 90.70511,0 90.70511,0v16.2c0,0 -60.40454,0 -90.7051,0c-30.43219,0 -91.4949,0 -91.4949,0z" fill="#0057ff" stroke-opacity="0.50196" stroke="#0055ff" stroke-width="2.5" stroke-linecap="butt"/><text transform="translate(230.9757,220.47565) scale(0.31258,0.31258)" font-size="40" xml:space="preserve" fill="#ffffff" fill-rule="nonzero" stroke="none" stroke-width="1" stroke-linecap="butt" stroke-linejoin="miter" stroke-miterlimit="10" stroke-dasharray="" stroke-dashoffset="0" font-family="Sans Serif" font-weight="normal" text-anchor="start" style="mix-blend-mode: normal"><tspan x="0" dy="0">Changer le sens des réponses</tspan></text><path d="M303.53333,194.92767v-29.85533h32.93335v29.85533z" fill="#0057ff" stroke-opacity="0.50196" stroke="#0055ff" stroke-width="2.5" stroke-linecap="butt"/><g fill="none" stroke="#ffffff" stroke-width="1.75" stroke-linecap="round"><path d="M309.12868,173.91782h22.23044"/><path d="M322.80235,169.19714l8.5978,4.71492"/><path d="M331.34754,173.93119l-8.59781,4.71492" data-paper-data="{&quot;index&quot;:null}"/></g><g data-paper-data="{&quot;index&quot;:null}" fill="none" stroke="#ffffff" stroke-width="1.75" stroke-linecap="round"><path d="M330.87134,186.0746h-22.23044"/><path d="M308.59984,186.06883l8.5978,-4.71492"/><path d="M317.25028,190.80289l-8.5978,-4.71492" data-paper-data="{&quot;index&quot;:null}"/></g></g></g></svg>