<svg version="1.1" xmlns="http://www.w3.org/2000/svg" xmlns:xlink="http://www.w3.org/1999/xlink" width="317.37716" height="37.66667" viewBox="0,0,317.37716,37.66667"><defs><linearGradient x1="244.64631" y1="161.16667" x2="244.64631" y2="198.83333" gradientUnits="userSpaceOnUse" id="color-1"><stop offset="0" stop-color="#ffffff" stop-opacity="0"/><stop offset="1" stop-color="#ffffff"/></linearGradient></defs><g transform="translate(-164.40393,-161.16666)"><g data-paper-data="{&quot;isPaintingLayer&quot;:true}" fill-rule="nonzero" stroke-linejoin="miter" stroke-miterlimit="10" stroke-dasharray="" stroke-dashoffset="0" style="mix-blend-mode: normal"><path d="M165.97964,198.83333v-37.66667h157.33333v37.66667z" fill="url(#color-1)" stroke="none" stroke-width="0" stroke-linecap="butt"/><g fill="none" stroke="#000000" stroke-width="2" stroke-linecap="round"><path d="M351.78699,182.92284h28.83499"/><path d="M370.10255,177.11936l10.56988,5.79639"/><path d="M370.03789,188.73566l10.5699,-5.79639" data-paper-data="{&quot;index&quot;:null}"/></g><text transform="translate(394.90052,188.96412) scale(0.5,0.5)" font-size="40" xml:space="preserve" fill="#000000" fill-rule="nonzero" stroke="none" stroke-width="1" stroke-linecap="butt" stroke-linejoin="miter" stroke-miterlimit="10" stroke-dasharray="" stroke-dashoffset="0" font-family="Sans Serif" font-weight="normal" text-anchor="start" style="mix-blend-mode: normal"><tspan x="0" dy="0">Français</tspan></text><path d="M475.28109,194.39235v-10.5h6.5v10.5z" fill="none" stroke="#000000" stroke-width="0" stroke-linecap="butt"/><path d="M165.40393,197.5949v-33h158v33z" fill="none" stroke="#0036ff" stroke-width="2" stroke-linecap="butt"/><text transform="translate(208.81458,178.36873) scale(0.24221,0.24221)" font-size="40" xml:space="preserve" fill="#000000" fill-rule="nonzero" stroke="none" stroke-width="1" stroke-linecap="butt" stroke-linejoin="miter" stroke-miterlimit="10" stroke-dasharray="" stroke-dashoffset="0" font-family="Sans Serif" font-weight="normal" text-anchor="start" style="mix-blend-mode: normal"><tspan x="0" dy="0">  Regardez la </tspan><tspan x="0" dy="48px"> zone de texte</tspan></text><g fill="none" stroke="#000000" stroke-width="1.5" stroke-linecap="round"><path d="M176.99433,175.02168l0.1107,12.98115"/><path d="M177.10957,188.03325l3.44482,-6.4108"/><path d="M177.09503,187.99434l-3.55365,-6.35112" data-paper-data="{&quot;index&quot;:null}"/></g><g fill="none" stroke="#000000" stroke-width="1.5" stroke-linecap="round"><path d="M308.54438,187.85081l-0.1107,-12.98114"/><path d="M311.99374,181.47043l-3.44482,6.4108"/><path d="M308.53439,187.84232l-3.55365,-6.35112" data-paper-data="{&quot;index&quot;:null}"/></g></g></g></svg>