<svg version="1.1" xmlns="http://www.w3.org/2000/svg" xmlns:xlink="http://www.w3.org/1999/xlink" width="535.67406" height="241.44434" viewBox="0,0,535.67406,241.44434"><g transform="translate(-54.2595,-102.71953)"><g data-paper-data="{&quot;isPaintingLayer&quot;:true}" fill="none" fill-rule="nonzero" stroke="#939393" stroke-width="1" stroke-linecap="round" stroke-linejoin="miter" stroke-miterlimit="10" stroke-dasharray="" stroke-dashoffset="0" style="mix-blend-mode: normal"><path d="M55.7595,107.22704h239.34071"/><path d="M350.09286,107.22704h239.34071"/><g><path d="M306.91074,106.31422h28.66667"/><path d="M329.96795,103.21953l5.63636,3.09091"/><path d="M329.93345,109.41389l5.63637,-3.09091" data-paper-data="{&quot;index&quot;:null}"/></g><path d="M295.10022,146.97704h-239.34071"/><path d="M350.09284,146.97704h239.34071"/><g><path d="M306.91074,146.06422h28.66667"/><path d="M335.60431,146.06044l-5.63636,-3.09091"/><path d="M335.56984,146.07298l-5.63637,3.09091" data-paper-data="{&quot;index&quot;:null}"/></g><path d="M295.10022,184.47704h-239.34071"/><path d="M589.43356,184.47704h-239.34071"/><g><path d="M335.57741,183.56422h-28.66667"/><path d="M329.96795,180.46953l5.63636,3.09091"/><path d="M329.93345,186.66389l5.63637,-3.09091" data-paper-data="{&quot;index&quot;:null}"/></g><path d="M55.7595,224.22704h239.34071"/><path d="M350.09286,224.22704h239.34071"/><g><path d="M306.91074,223.31422h28.66667"/><path d="M335.60431,223.31044l-5.63636,-3.09091"/><path d="M335.56983,223.32298l-5.63637,3.09091" data-paper-data="{&quot;index&quot;:null}"/></g><path d="M54.7595,264.22704h239.34071"/><path d="M588.43355,264.22704h-239.34071"/><g><path d="M305.91074,263.31422h28.66667"/><path d="M328.96795,260.21952l5.63636,3.09091"/><path d="M334.56982,263.32298l-5.63637,3.09091" data-paper-data="{&quot;index&quot;:null}"/></g><path d="M54.7595,303.97704h239.34071"/><path d="M588.43355,303.97704h-239.34071"/><g><path d="M334.57741,303.06422h-28.66667"/><path d="M328.96795,299.96952l5.63636,3.09091"/><path d="M328.93345,306.16389l5.63637,-3.09091" data-paper-data="{&quot;index&quot;:null}"/></g><path d="M54.7595,341.47704h239.34071"/><path d="M349.09286,341.47704h239.34071"/><g><path d="M305.91074,340.56422h28.66667"/><path d="M334.60431,340.56044l-5.63636,-3.09091"/><path d="M328.93345,343.66387l5.63637,-3.09091" data-paper-data="{&quot;index&quot;:null}"/></g></g></g></svg>