<svg version="1.1" xmlns="http://www.w3.org/2000/svg" xmlns:xlink="http://www.w3.org/1999/xlink" width="223.85318" height="34.65673" viewBox="0,0,223.85318,34.65673"><g transform="translate(-208.07341,-163.85679)"><g data-paper-data="{&quot;isPaintingLayer&quot;:true}" fill-rule="nonzero" stroke-linecap="butt" stroke-linejoin="miter" stroke-miterlimit="10" stroke-dasharray="" stroke-dashoffset="0" style="mix-blend-mode: normal"><path d="M209.32341,194.89321c0,0 0,-3.9495 0,-8.44876c0,-3.86998 0,-8.1467 0,-10.66667c0,-4.07176 0,-10.67099 0,-10.67099c0,0 6.30407,0 13.4548,0c23.75273,0 155.81922,0 196.17968,0c7.4013,0 11.7187,0 11.7187,0v29.78641c0,0 -4.76463,0 -12.8761,0c-42.99567,0 -180.02538,0 -199.94123,0c-4.74106,0 -8.53585,0 -8.53585,0z" fill="#ffffff" stroke="#0057ff" stroke-width="2.5"/><text transform="translate(223.46003,186) scale(0.5,0.5)" font-size="40" xml:space="preserve" fill="#0057ff" fill-rule="nonzero" stroke="none" stroke-width="1" stroke-linecap="butt" stroke-linejoin="miter" stroke-miterlimit="10" stroke-dasharray="" stroke-dashoffset="0" font-family="Sans Serif" font-weight="normal" text-anchor="start" style="mix-blend-mode: normal"><tspan x="0" dy="0">Voir ma progression</tspan></text></g></g></svg>