<svg version="1.1" xmlns="http://www.w3.org/2000/svg" xmlns:xlink="http://www.w3.org/1999/xlink" width="284.83333" height="32.28641" viewBox="0,0,284.83333,32.28641"><g transform="translate(-177.58333,-163.85679)"><g data-paper-data="{&quot;isPaintingLayer&quot;:true}" fill-rule="nonzero" stroke-linecap="butt" stroke-linejoin="miter" stroke-miterlimit="10" stroke-dasharray="" stroke-dashoffset="0" style="mix-blend-mode: normal"><path d="M178.83333,194.89321c0,0 0,-3.9495 0,-8.44876c0,-3.86998 0,-8.1467 0,-10.66667c0,-4.07176 0,-10.67099 0,-10.67099c0,0 8.04077,0 17.16144,0c30.29632,0 198.74557,0 250.22484,0c9.44028,0 14.94706,0 14.94706,0v29.78641c0,0 -6.07723,0 -16.42331,0c-54.84046,0 -229.62022,0 -255.02265,0c-6.04717,0 -10.88737,0 -10.88737,0z" fill="#0055ff" stroke-opacity="0.56471" stroke="#0055ff" stroke-width="2.5"/><text transform="translate(199.35004,186) scale(0.5,0.5)" font-size="40" xml:space="preserve" fill="#ffffff" fill-rule="nonzero" stroke="none" stroke-width="1" stroke-linecap="butt" stroke-linejoin="miter" stroke-miterlimit="10" stroke-dasharray="" stroke-dashoffset="0" font-family="Sans Serif" font-weight="normal" text-anchor="start" style="mix-blend-mode: normal"><tspan x="0" dy="0">Continuer l'entrainement</tspan></text></g></g></svg>